<svg width="64" height="64" viewBox="0 0 64 64" fill="none" xmlns="http://www.w3.org/2000/svg">
<g clip-path="url(#clip0_164_7)">
<path d="M32 0C14.4 0 0 14.4 0 32C0 49.6 14.4 64 32 64C49.7 64 64 49.6 64 32C64 14.4 49.7 0 32 0ZM32 62.1C15.4 62.1 1.9 48.6 1.9 32C1.9 15.4 15.4 1.9 32 1.9C48.6 1.9 62.1 15.4 62.1 32C62.1 48.6 48.6 62.1 32 62.1Z" fill="white"/>
<path d="M31.9999 1.8999C15.3999 1.8999 1.8999 15.3999 1.8999 31.9999C1.8999 48.5999 15.3999 62.0999 31.9999 62.0999C48.5999 62.0999 62.0999 48.5999 62.0999 31.9999C62.0999 15.3999 48.5999 1.8999 31.9999 1.8999ZM31.9999 12.6999C36.7999 12.6999 40.7999 16.5999 40.7999 21.4999C40.7999 26.2999 36.8999 30.2999 31.9999 30.2999C27.1999 30.2999 23.1999 26.3999 23.1999 21.4999C23.2999 16.6999 27.1999 12.6999 31.9999 12.6999ZM47.8999 50.3999H16.0999C15.5999 50.3999 15.0999 49.9999 15.0999 49.3999C15.0999 40.0999 22.6999 32.4999 31.9999 32.4999C41.2999 32.4999 48.8999 40.0999 48.8999 49.3999C48.8999 49.9999 48.4999 50.3999 47.8999 50.3999Z" fill="white"/>
<path d="M2.3999 31.9999C2.3999 15.676 15.676 2.3999 31.9999 2.3999C48.3238 2.3999 61.5999 15.676 61.5999 31.9999C61.5999 48.3238 48.3238 61.5999 31.9999 61.5999C15.676 61.5999 2.3999 48.3238 2.3999 31.9999ZM3.3999 31.9999C3.3999 47.776 16.2238 60.5999 31.9999 60.5999C47.776 60.5999 60.5999 47.776 60.5999 31.9999C60.5999 16.2238 47.776 3.3999 31.9999 3.3999C16.2238 3.3999 3.3999 16.2238 3.3999 31.9999Z" stroke="white"/>
<path d="M32.0001 32.5C22.7001 32.5 15.1001 40.1 15.1001 49.4C15.1001 49.9 15.5001 50.4 16.1001 50.4H48.0001C48.5001 50.4 49.0001 50 49.0001 49.4C48.9001 40.1 41.3001 32.5 32.0001 32.5ZM17.1001 48.5C17.6001 40.7 24.1001 34.5 32.0001 34.5C39.9001 34.5 46.4001 40.7 46.9001 48.5H17.1001Z" fill="black"/>
<path d="M46.9001 48.5H17.1001C17.6001 40.7 24.1001 34.5 32.0001 34.5C39.9001 34.5 46.4001 40.7 46.9001 48.5Z" fill="black"/>
<path d="M32.0002 12.7002C27.2002 12.7002 23.2002 16.6002 23.2002 21.5002C23.2002 26.3002 27.1002 30.3002 32.0002 30.3002C36.8002 30.3002 40.8002 26.4002 40.8002 21.5002C40.8002 16.7002 36.8002 12.7002 32.0002 12.7002V12.7002ZM32.0002 28.3002C28.2002 28.3002 25.2002 25.3002 25.2002 21.5002C25.2002 17.7002 28.3002 14.7002 32.0002 14.7002C35.8002 14.7002 38.8002 17.8002 38.8002 21.5002C38.8002 25.2002 35.8002 28.3002 32.0002 28.3002V28.3002Z" fill="black"/>
<path d="M38.8002 21.5002C38.8002 25.3002 35.7002 28.3002 32.0002 28.3002C28.2002 28.3002 25.2002 25.3002 25.2002 21.5002C25.2002 17.7002 28.3002 14.7002 32.0002 14.7002C35.8002 14.7002 38.8002 17.7002 38.8002 21.5002Z" fill="black"/>
<path d="M32.0001 34.5C24.1001 34.5 17.6001 40.7 17.1001 48.5H47.0001C46.4001 40.7 39.9001 34.5 32.0001 34.5ZM32.0001 36C38.5001 36 44.1001 40.7 45.2001 47H18.8001C19.9001 40.7 25.5001 36 32.0001 36Z" fill="black"/>
<path d="M32.0002 14.7002C28.2002 14.7002 25.2002 17.8002 25.2002 21.5002C25.2002 25.2002 28.3002 28.3002 32.0002 28.3002C35.8002 28.3002 38.8002 25.3002 38.8002 21.5002C38.8002 17.7002 35.8002 14.7002 32.0002 14.7002ZM32.0002 26.8002C29.1002 26.8002 26.7002 24.4002 26.7002 21.5002C26.7002 18.6002 29.1002 16.2002 32.0002 16.2002C34.9002 16.2002 37.3002 18.6002 37.3002 21.5002C37.3002 24.4002 34.9002 26.8002 32.0002 26.8002Z" fill="black"/>
</g>
<defs>
<clipPath id="clip0_164_7">
<rect width="64" height="64" fill="white"/>
</clipPath>
</defs>
</svg>
